Coordinates
version=1
nRows=60
nColumns=12
inDegrees=yes

Units are S.I. units (second, meters, Newtons, ...)
Angles are in degrees

endheader
time	SC_y	SC_z	SC_x	AC_y	AC_z	AC_x	GH_y	GH_z	GH_yy	EL_x	PS_y
       0.0              -58.71          30.38          83.13          52.24         -2.168          9.174         -62.47          85.48         -39.67          90.35          42.44
   0.03883               -58.7          30.38          83.13          52.24         -2.171          9.175         -62.44          85.48         -39.68          90.35          42.45
   0.07766               -58.7          30.37          83.13          52.25         -2.173          9.176         -62.41          85.47         -39.69          90.35          42.45
    0.1165               -58.7          30.37          83.12          52.25         -2.175          9.176         -62.37          85.47          -39.7          90.36          42.45
    0.1553              -58.69          30.36          83.12          52.25         -2.178          9.177         -62.33          85.46         -39.72          90.37          42.45
    0.1942              -58.69          30.36          83.12          52.25         -2.181          9.178         -62.29          85.46         -39.73          90.37          42.46
     0.233              -58.69          30.36          83.11          52.26         -2.184          9.179         -62.25          85.45         -39.74          90.38          42.46
    0.2718              -58.68          30.35          83.11          52.26         -2.187           9.18          -62.2          85.44         -39.76          90.39          42.46
    0.3107              -58.68          30.35           83.1          52.26         -2.191          9.182         -62.15          85.44         -39.78          90.39          42.47
    0.3495              -58.68          30.34           83.1          52.27         -2.194          9.183          -62.1          85.43         -39.79           90.4          42.47
    0.3883              -58.67          30.33          83.09          52.27         -2.198          9.184         -62.04          85.42         -39.81          90.41          42.48
    0.4271              -58.67          30.33          83.09          52.27         -2.203          9.186         -61.98          85.41         -39.83          90.42          42.48
     0.466              -58.66          30.32          83.08          52.28         -2.207          9.187         -61.91           85.4         -39.86          90.43          42.49
    0.5048              -58.65          30.31          83.08          52.28         -2.212          9.189         -61.84          85.39         -39.88          90.44          42.49
    0.5436              -58.65          30.31          83.07          52.29         -2.218          9.191         -61.76          85.38         -39.91          90.45           42.5
    0.5825              -58.64           30.3          83.06          52.29         -2.224          9.193         -61.67          85.37         -39.94          90.46          42.51
    0.6213              -58.63          30.29          83.05           52.3          -2.23          9.195         -61.58          85.35         -39.97          90.48          42.51
    0.6601              -58.63          30.28          83.05           52.3         -2.237          9.198         -61.48          85.34          -40.0          90.49          42.52
     0.699              -58.62          30.27          83.04          52.31         -2.244            9.2         -61.37          85.32         -40.04          90.51          42.53
    0.7378              -58.61          30.25          83.03          52.32         -2.253          9.203         -61.25          85.31         -40.08          90.53          42.54
    0.7766               -58.6          30.24          83.01          52.32         -2.262          9.207         -61.11          85.29         -40.12          90.54          42.55
    0.8155              -58.58          30.23           83.0          52.33         -2.272           9.21         -60.97          85.26         -40.17          90.57          42.56
    0.8543              -58.57          30.21          82.99          52.34         -2.283          9.214         -60.81          85.24         -40.22          90.59          42.57
    0.8931              -58.56          30.19          82.97          52.35         -2.295          9.218         -60.63          85.22         -40.28          90.62          42.59
     0.932              -58.54          30.17          82.96          52.37         -2.309          9.223         -60.43          85.19         -40.35          90.65           42.6
    0.9708              -58.52          30.15          82.94          52.38         -2.324          9.228         -60.21          85.15         -40.42          90.68          42.62
      1.01               -58.5          30.12          82.91          52.39         -2.341          9.234         -59.96          85.12          -40.5          90.71          42.64
     1.048              -58.48          30.09          82.89          52.41          -2.36          9.241         -59.68          85.08         -40.59          90.76          42.66
     1.087              -58.46          30.06          82.86          52.43         -2.382          9.248         -59.37          85.03          -40.7           90.8          42.68
     1.126              -58.43          30.02          82.83          52.45         -2.407          9.257         -59.01          84.98         -40.82          90.85          42.71
     1.165              -58.39          29.98           82.8          52.48         -2.435          9.267          -58.6          84.92         -40.95          90.91          42.74
     1.204              -58.36          29.93          82.76           52.5         -2.467          9.278         -58.13          84.85         -41.11          90.98          42.78
     1.243              -58.31          29.88          82.71          52.54         -2.504          9.291         -57.59          84.77         -41.28          91.06          42.82
     1.281              -58.26          29.82          82.65          52.57         -2.548          9.306         -56.96          84.68         -41.49          91.16          42.87
      1.32               -58.2          29.74          82.59          52.62         -2.598          9.324         -56.22          84.58         -41.74          91.26          42.93
     1.359              -58.13          29.65          82.51          52.67         -2.658          9.345         -55.35          84.45         -42.02          91.39           43.0
     1.398              -58.05          29.55          82.43          52.73         -2.729          9.369         -54.32           84.3         -42.36          91.54          43.08
     1.437              -57.95          29.42          82.32          52.81         -2.814          9.399         -53.08          84.12         -42.77          91.72          43.17
     1.476              -57.83          29.27          82.19           52.9         -2.917          9.435         -51.59          83.91         -43.27          91.94          43.29
     1.514              -57.68          29.08          82.03          53.01         -3.042          9.479         -49.76          83.64         -43.87          92.21          43.43
     1.553               -57.5          28.85          81.83          53.14         -3.198          9.533          -47.5          83.31         -44.61          92.54          43.61
     1.592              -57.28          28.56          81.59          53.31         -3.391            9.6         -44.69          82.91         -45.54          92.96          43.82
     1.631              -56.99           28.2          81.28          53.53         -3.635          9.685         -41.15          82.39         -46.71          93.48           44.1
      1.67              -56.63          27.74          80.89           53.8         -3.944          9.793         -36.64          81.74          -48.2          94.14          44.45
     1.709              -56.17          27.15          80.39          54.14         -4.341          9.932         -30.88           80.9         -50.11          94.99           44.9
     1.747              -55.58          26.39          79.75          54.59         -4.849          10.11         -23.48          79.83         -52.55          96.07          45.47
     1.786              -54.82          25.43          78.93          55.16         -5.499          10.34         -14.02          78.46         -55.67          97.46          46.21
     1.825              -53.86          24.21           77.9          55.87         -6.316          10.62         -2.139          76.74          -59.6          99.21          47.13
     1.864               -52.7          22.73          76.65          56.74         -7.312          10.97          12.34          74.64         -64.38          101.3          48.26
     1.903              -51.35          21.02          75.19          57.75         -8.466          11.37          29.13          72.21         -69.93          103.8          49.56
     1.942              -49.89          19.16          73.61          58.84         -9.716          11.81          47.31          69.57         -75.93          106.5          50.97
      1.98              -48.43           17.3          72.04          59.94         -10.97          12.24          65.49          66.94         -81.93          109.1          52.39
     2.019              -47.09          15.58          70.58          60.95         -12.12          12.65          82.28           64.5         -87.48          111.6          53.69
     2.058              -45.93           14.1          69.33          61.82         -13.12          12.99          96.76           62.4         -92.26          113.7          54.81
     2.097              -44.97          12.89           68.3          62.53         -13.93          13.28          108.6          60.68         -96.19          115.5          55.74
     2.136              -44.21          11.92          67.48           63.1         -14.58           13.5          118.1          59.31         -99.31          116.9          56.47
     2.175              -43.62          11.17          66.84          63.55         -15.09          13.68          125.5          58.24         -101.8          118.0          57.05
     2.213              -43.16          10.58          66.34          63.89         -15.49          13.82          131.3           57.4         -103.7          118.8           57.5
     2.252              -42.79          10.12          65.95          64.16          -15.8          13.93          135.8          56.75         -105.1          119.5          57.85
     2.291              -42.51          9.754          65.64          64.38         -16.04          14.01          139.3          56.24         -106.3          120.0          58.12
